<svg xmlns="http://www.w3.org/2000/svg" version="1.1" xmlns:xlink="http://www.w3.org/1999/xlink" xmlns:svgjs="http://svgjs.com/svgjs" width="100%" height="100%" viewBox="0 0 1000 600"><rect width="1000" height="600" x="0" y="0" fill="#eefcf9"/><g><rect width="333.3333333333333" height="333.3333333333333" rx="13.333333333333334" ry="13.333333333333334" y="149.12555283627844" fill="#11bb9b" transform="matrix(0.9850018272394262,0,0,0.9850018272394262,0,-11.055913975969446)" x="126.90335083007812"/><path d="M226.6321629336952 388.8726639657822L207.93015222562394 388.8726639657822Q206.36708094943617 385.7739437164977 205.40730034125068 377.8763204262858L205.40730034125068 377.8763204262858Q192.98499704102153 390.7922251821532 175.70894609368298 390.7922251821532L175.70894609368298 390.7922251821532Q160.29761175653334 390.7922251821532 150.42558264376845 382.0719327992109Q140.52613122791254 373.35164041626854 140.52613122791254 359.94213420476285L140.52613122791254 359.94213420476285Q140.52613122791254 343.6532861687009 152.9210122250507 334.6313484517574Q165.31589322218883 325.6368330379049 187.77475945372896 325.6368330379049L187.77475945372896 325.6368330379049L205.13307731034058 325.6368330379049L205.13307731034058 317.4375644136918Q205.13307731034058 308.0865590596562 199.5389274797738 302.5472538352715Q193.94477764920703 297.00794861088673 183.0581233220746 297.00794861088673L183.0581233220746 297.00794861088673Q173.5151618464019 297.00794861088673 167.0434983169227 301.8068516518141Q160.5718347874435 306.6331769958325 160.5718347874435 313.48875276858587L160.5718347874435 313.48875276858587L142.66507086901163 313.48875276858587Q142.66507086901163 305.673396387647 148.20437609339635 298.40648606852847Q153.7436813177811 291.11215344631876 163.2317981872718 286.8616964672117Q172.7199150567625 282.63866179119566 184.10017083953315 282.63866179119566L184.10017083953315 282.63866179119566Q202.1440462734201 282.63866179119566 212.34514302327713 291.633177205048Q222.5736620762252 300.6551149219915 222.95757431949937 316.4777838055064L222.95757431949937 316.4777838055064L222.95757431949937 364.4942365178712Q222.95757431949937 378.8361010344713 226.6321629336952 387.33701499268545L226.6321629336952 387.33701499268545L226.6321629336952 388.8726639657822ZM178.31406488732927 375.27120163263953L178.31406488732927 375.27120163263953Q186.70528963317943 375.27120163263953 194.21900068011715 370.93847774425933Q201.76013403014588 366.60575385587924 205.13307731034058 359.66791117385276L205.13307731034058 359.66791117385276L205.13307731034058 338.25109245977114L191.14770273392364 338.25109245977114Q158.3780505401624 338.25109245977114 158.3780505401624 357.4467046234806L158.3780505401624 357.4467046234806Q158.3780505401624 365.8379293693308 163.97220037072918 370.5545655009852Q169.53892789820492 375.27120163263953 178.31406488732927 375.27120163263953ZM257.29029778944835 259.30228186074305L275.11479479860725 259.30228186074305L275.11479479860725 284.55822300756654L294.5846299932269 284.55822300756654L294.5846299932269 298.3516414623464L275.11479479860725 298.3516414623464L275.11479479860725 363.04085445404746Q275.11479479860725 369.29313955879854 277.71991359225353 372.4467044142651Q280.3250323858998 375.57284696664067 286.5773174906509 375.57284696664067L286.5773174906509 375.57284696664067Q289.6760377399354 375.57284696664067 295.0782314488651 374.4211102368181L295.0782314488651 374.4211102368181L295.0782314488651 388.8726639657822Q288.0306995544746 390.7922251821532 281.3945022064494 390.7922251821532L281.3945022064494 390.7922251821532Q269.4383780587674 390.7922251821532 263.3506267725624 383.5801594692166Q257.29029778944835 376.340671453189 257.29029778944835 363.04085445404746L257.29029778944835 363.04085445404746L257.29029778944835 298.3516414623464L238.286641747376 298.3516414623464L238.286641747376 284.55822300756654L257.29029778944835 284.55822300756654L257.29029778944835 259.30228186074305ZM334.7857263246528 240.79222727430889L334.7857263246528 388.8726639657822L316.96122931549394 388.8726639657822L316.96122931549394 240.79222727430889L334.7857263246528 240.79222727430889ZM405.17877835928465 376.2309822408249L405.17877835928465 376.2309822408249Q414.7217398349574 376.2309822408249 421.85153863862087 370.47229859171216Q428.9813374422844 364.68619263950825 429.74916192883285 355.9933225596569L429.74916192883285 355.9933225596569L446.61387832980614 355.9933225596569Q446.14769917725897 364.96041567041834 440.4438601343281 373.0499950822674Q434.7674433944882 381.1669967972074 425.27932652499766 385.9933221412258Q415.76378735241593 390.7922251821532 405.17877835928465 390.7922251821532L405.17877835928465 390.7922251821532Q383.8716488575671 390.7922251821532 371.28481173879186 376.58747218100814Q358.6979746200166 362.35529687677206 358.6979746200166 337.6752240948599L358.6979746200166 337.6752240948599L358.6979746200166 334.68619305793936Q358.6979746200166 319.46681484242686 364.2921244505834 307.592957604018Q369.8862742811501 295.7465226687001 380.3341717588263 289.1925922299479Q390.8094915395935 282.63866179119566 405.0690891469206 282.63866179119566L405.0690891469206 282.63866179119566Q422.6193631251693 282.63866179119566 434.2464196357591 293.1414038750538Q445.8460538432577 303.6441459589121 446.61387832980614 320.42659545061235L446.61387832980614 320.42659545061235L429.74916192883285 320.42659545061235Q428.9813374422844 310.30776561002835 422.09833936644003 303.78125747436707Q415.1879189875046 297.2821716417968 405.0690891469206 297.2821716417968L405.0690891469206 297.2821716417968Q391.4676268137778 297.2821716417968 384.0087603730222 307.07193384528875Q376.52247162917547 316.8616960487806 376.52247162917547 335.37175063521477L376.52247162917547 335.37175063521477L376.52247162917547 338.74469391540936Q376.52247162917547 356.76114704620534 383.9539157668401 366.4960646435152Q391.3853599045048 376.2309822408249 405.17877835928465 376.2309822408249Z " fill="#eefcf9" transform="matrix(0.9850018272394262,0,0,0.9850018272394262,0,-11.055913975969446)"/><path d="M543.5700156913708 379.5216586117466L543.5700156913708 379.5216586117466Q543.5700156913708 374.88728938936526 546.3122460004722 371.8159914431718Q549.0818986126646 368.7172711938872 554.5663592308674 368.7172711938872Q560.0508198490701 368.7172711938872 562.9027393705355 371.8159914431718Q565.7546588920009 374.88728938936526 565.7546588920009 379.5216586117466L565.7546588920009 379.5216586117466Q565.7546588920009 383.96407171249075 562.9027393705355 386.9531027494113Q560.0508198490701 389.94213378633174 554.5663592308674 389.94213378633174Q549.0818986126646 389.94213378633174 546.3122460004722 386.9531027494113Q543.5700156913708 383.96407171249075 543.5700156913708 379.5216586117466ZM590.8186439171873 337.20904494231263L590.8186439171873 335.83792978776194Q590.8186439171873 311.8434145831251 602.198899699958 297.22732703561485Q613.5791554827285 282.63866179119566 631.9795208567987 282.63866179119566L631.9795208567987 282.63866179119566Q650.2976193215958 282.63866179119566 660.992317527091 295.17065430378887L660.992317527091 295.17065430378887L660.992317527091 240.79222727430889L678.844236839341 240.79222727430889L678.844236839341 388.8726639657822L662.4456995909147 388.8726639657822L661.5681858920024 377.68436430464874Q650.873487686507 390.7922251821532 631.7875647351616 390.7922251821532L631.7875647351616 390.7922251821532Q613.6614223920017 390.7922251821532 602.25374430614 375.9567592099148Q590.8186439171873 361.0938709345854 590.8186439171873 337.20904494231263L590.8186439171873 337.20904494231263ZM608.6431409263462 337.867180216497L608.6431409263462 337.867180216497Q608.6431409263462 355.60941031638276 615.9648958516468 365.64597324769375Q623.3140730800384 375.6551138759137 636.2299778359059 375.6551138759137L636.2299778359059 375.6551138759137Q653.2043834492432 375.6551138759137 660.992317527091 360.4357356604012L660.992317527091 360.4357356604012L660.992317527091 312.5289721604004Q652.9850050245151 297.77577309743515 636.4219339575429 297.77577309743515L636.4219339575429 297.77577309743515Q623.3140730800384 297.77577309743515 615.9648958516468 307.89460293801915Q608.6431409263462 318.01343277860315 608.6431409263462 337.867180216497ZM749.785734935793 390.7922251821532L749.785734935793 390.7922251821532Q728.5882946464395 390.7922251821532 715.288477647298 376.86169521191823Q701.9612383450653 362.9311652416834 701.9612383450653 339.62220761432184L701.9612383450653 339.62220761432184L701.9612383450653 336.33153124340026Q701.9612383450653 320.8105076938865 707.9118781158153 308.6075828183855Q713.8350955834742 296.4320802459755 724.4749491827876 289.52165986704006Q735.1422250851919 282.63866179119566 747.564528385421 282.63866179119566L747.564528385421 282.63866179119566Q767.911877278953 282.63866179119566 779.1824438493596 296.0207456996102Q790.4804327228571 309.4302519111159 790.4804327228571 334.41197002702927L790.4804327228571 334.41197002702927L790.4804327228571 341.8159918616029L719.8131576573152 341.8159918616029Q720.1970699005894 357.25474850184355 728.8350953742587 366.74286537133423Q737.445698544837 376.2309822408249 750.7455155439785 376.2309822408249L750.7455155439785 376.2309822408249Q760.2062101103783 376.2309822408249 766.7601405491305 372.39185980808304Q773.3140709878827 368.5253150722501 778.2226632411741 362.163340755135L778.2226632411741 362.163340755135L789.1367398713976 370.66425471334924Q776.001456690802 390.7922251821532 749.785734935793 390.7922251821532ZM747.564528385421 297.2821716417968L747.564528385421 297.2821716417968Q736.7875632706525 297.2821716417968 729.438386042261 305.15237262891776Q722.1166311169603 312.99515131294766 720.3890260222265 327.17248201100165L720.3890260222265 327.17248201100165L772.6285134106074 327.17248201100165L772.6285134106074 325.828789159542Q771.860688924059 312.22732682639923 765.3067584853068 304.7684603856436Q758.7528280465544 297.2821716417968 747.564528385421 297.2821716417968ZM817.7656242984158 284.55822300756654L844.2555690843349 364.68619263950825L870.1148008991606 284.55822300756654L888.3232101515937 284.55822300756654L850.9191887354511 388.8726639657822L837.3177264023084 388.8726639657822L799.5297927428917 284.55822300756654L817.7656242984158 284.55822300756654Z " fill="#11bb9b" transform="matrix(0.9850018272394262,0,0,0.9850018272394262,0,-11.055913975969446)"/></g></svg>